# xmcd CD database file
#
# Track frame offsets:
#	150
#	19800
#	41176
#	58631
#	79743
#	97378
#	113203
#	134018
#	166932
#	186274
#	223040
#	232054
#
# Disc length: 3279 seconds
#
# Revision: 1
# Processed by: cddbd v1.5.2PL0 Copyright (c) Steve Scherf et al.
# Submitted via: CDex 1.50
#
DISCID=b40ccd0c
DTITLE=Les Marvellous Pig Noise - Drôles de mammifères_Dufour, Sarran, Muller, Lattrell, Citene, 
DYEAR=2007
DGENRE=Blues
TTITLE0=Quand le soleil descend
TTITLE1=Ma muse est le Blues
TTITLE2=Cherche mon âme
TTITLE3=Ce soir je bois du noir
TTITLE4=Drôles de mammifères
TTITLE5=J'avoue qu'ça m'donne du mal
TTITLE6=Au milieu du silence
TTITLE7=Mother Earth
TTITLE8=La culture
TTITLE9=Something don't work
TTITLE10=Think about it (intro)
TTITLE11=Think about it
EXTD=YEAR: 2007
EXTT0=
EXTT1=
EXTT2=
EXTT3=
EXTT4=
EXTT5=
EXTT6=
EXTT7=
EXTT8=
EXTT9=
EXTT10=
EXTT11=
PLAYORDER=
